<svg id="icon" xmlns="http://www.w3.org/2000/svg" viewBox="0 0 146.88 216.59"><defs><style>.cls-1{fill:#1e4e7c;}</style></defs><path id="f_2" class="cls-1" d="M139.73,211.73v3.15a4.47,4.47,0,0,0,5.35,4.38L180.77,212a4.46,4.46,0,0,0,3.58-4.37v-3a4.46,4.46,0,0,0-5.34-4.38l-35.69,7.09A4.46,4.46,0,0,0,139.73,211.73Z" transform="translate(-37.47 -2.76)"/><path id="f_1" class="cls-1" d="M139.73,200v.18a4.46,4.46,0,0,0,5.36,4.37l35.68-7.26a4.48,4.48,0,0,0,3.58-4.38h0a4.46,4.46,0,0,0-5.34-4.38l-35.69,7.09A4.47,4.47,0,0,0,139.73,200Z" transform="translate(-37.47 -2.76)"/><path id="f_0" class="cls-1" d="M87.76,3,43.63,14.82a8.3,8.3,0,0,0-6.16,8V195.52a8.31,8.31,0,0,0,6,8L87.57,216.4a8.3,8.3,0,0,0,10.64-8V152.31a8.31,8.31,0,0,1,8.3-8.31h24.92a8.31,8.31,0,0,1,8.3,8.31v31.55A8.3,8.3,0,0,0,149.6,192l28-5.37a8.3,8.3,0,0,0,6.74-8.15v-159a8.3,8.3,0,0,0-6-8l-28-8.15a8.3,8.3,0,0,0-10.62,8v72.5a8.31,8.31,0,0,1-8.3,8.31H106.51a8.31,8.31,0,0,1-8.3-8.31V11.07A8.31,8.31,0,0,0,87.76,3Z" transform="translate(-37.47 -2.76)"/></svg>